<svg width="20" height="20" viewBox="0 0 20 20" fill="none" xmlns="http://www.w3.org/2000/svg">
<g clip-path="url(#clip0_375_2316)">
<path d="M1.33301 18.651L2.92195 14.9916C1.70632 13.266 1.16224 11.1561 1.39179 9.05778C1.62135 6.95948 2.60877 5.01708 4.16875 3.59511C5.72872 2.17313 7.75402 1.36933 9.86454 1.33455C11.9751 1.29977 14.0258 2.03641 15.6317 3.40622C17.2377 4.77602 18.2886 6.68483 18.5872 8.77443C18.8857 10.864 18.4114 12.9907 17.2533 14.7555C16.0952 16.5202 14.3329 17.8017 12.2971 18.3593C10.2613 18.917 8.09191 18.7125 6.19613 17.7843L1.33301 18.651Z" stroke="black" stroke-width="1.5" stroke-linecap="round" stroke-linejoin="round"/>
<path d="M7.11133 8.05802C7.11133 8.18572 7.16206 8.30819 7.25236 8.39849C7.34265 8.48879 7.46512 8.53951 7.59283 8.53951C7.72053 8.53951 7.843 8.48879 7.9333 8.39849C8.02359 8.30819 8.07432 8.18572 8.07432 8.05802V7.09502C8.07432 6.96732 8.02359 6.84485 7.9333 6.75455C7.843 6.66425 7.72053 6.61353 7.59283 6.61353C7.46512 6.61353 7.34265 6.66425 7.25236 6.75455C7.16206 6.84485 7.11133 6.96732 7.11133 7.09502V8.05802ZM7.11133 8.05802C7.11133 9.33503 7.61862 10.5597 8.5216 11.4627C9.42458 12.3657 10.6493 12.873 11.9263 12.873M11.9263 12.873H12.8893C13.017 12.873 13.1395 12.8223 13.2298 12.732C13.3201 12.6417 13.3708 12.5192 13.3708 12.3915C13.3708 12.2638 13.3201 12.1413 13.2298 12.051C13.1395 11.9607 13.017 11.91 12.8893 11.91H11.9263C11.7986 11.91 11.6761 11.9607 11.5858 12.051C11.4955 12.1413 11.4448 12.2638 11.4448 12.3915C11.4448 12.5192 11.4955 12.6417 11.5858 12.732C11.6761 12.8223 11.7986 12.873 11.9263 12.873Z" stroke="black" stroke-width="1.5" stroke-linecap="round" stroke-linejoin="round"/>
</g>
<defs>
<clipPath id="clip0_375_2316">
<rect width="20" height="20" fill="white"/>
</clipPath>
</defs>
</svg>
