<svg width="20" height="20" viewBox="0 0 20 20" fill="none" xmlns="http://www.w3.org/2000/svg">
<path d="M18.6485 2.67454C17.8948 3.20619 17.0603 3.61281 16.1771 3.87876C15.7031 3.33372 15.0731 2.94741 14.3724 2.77208C13.6717 2.59675 12.934 2.64085 12.2592 2.89842C11.5843 3.156 11.0049 3.61462 10.5992 4.21225C10.1935 4.80988 9.98109 5.5177 9.99077 6.23996V7.02703C8.6076 7.0629 7.23703 6.75613 6.00112 6.13406C4.76521 5.51199 3.70234 4.59392 2.90715 3.46161C2.90715 3.46161 -0.241131 10.5452 6.84249 13.6935C5.22155 14.7938 3.29057 15.3455 1.33301 15.2676C8.41663 19.203 17.0744 15.2676 17.0744 6.21635C17.0737 5.99712 17.0526 5.77842 17.0114 5.56308C17.8147 4.77089 18.3816 3.7707 18.6485 2.67454Z" stroke="black" stroke-width="1.5" stroke-linecap="round" stroke-linejoin="round"/>
</svg>
