<svg width="20" height="20" viewBox="0 0 20 20" fill="none" xmlns="http://www.w3.org/2000/svg">
<path d="M1.33301 5.23814C1.33301 4.73296 1.53369 4.24848 1.8909 3.89127C2.24811 3.53405 2.7326 3.33337 3.23777 3.33337H16.5711C17.0763 3.33337 17.5608 3.53405 17.918 3.89127C18.2752 4.24848 18.4759 4.73296 18.4759 5.23814M1.33301 5.23814V14.7619C1.33301 15.2671 1.53369 15.7516 1.8909 16.1088C2.24811 16.466 2.7326 16.6667 3.23777 16.6667H16.5711C17.0763 16.6667 17.5608 16.466 17.918 16.1088C18.2752 15.7516 18.4759 15.2671 18.4759 14.7619V5.23814M1.33301 5.23814L9.90444 10.9524L18.4759 5.23814" stroke="black" stroke-width="1.5" stroke-linecap="round" stroke-linejoin="round"/>
</svg>
