<svg width="20" height="20" viewBox="0 0 20 20" fill="none" xmlns="http://www.w3.org/2000/svg">
<path d="M6.54188 12.793L12.7924 6.5425M8.62538 3.41719L9.10771 2.85881C10.0847 1.88199 11.4096 1.33328 12.7912 1.33337C14.1727 1.33347 15.4976 1.88238 16.4744 2.85933C17.4513 3.83629 18 5.16128 17.9999 6.54281C17.9998 7.92433 17.4509 9.24924 16.4739 10.2261L15.9176 10.7094M10.7089 15.9182L10.2953 16.4745C9.30696 17.4519 7.97304 18 6.58305 18C5.19306 18 3.85914 17.4519 2.87078 16.4745C2.38361 15.9928 1.99685 15.4193 1.73289 14.787C1.46892 14.1548 1.33301 13.4765 1.33301 12.7914C1.33301 12.1063 1.46892 11.428 1.73289 10.7958C1.99685 10.1636 2.38361 9.59003 2.87078 9.10833L3.41665 8.626" stroke="black" stroke-width="1.5" stroke-linecap="round" stroke-linejoin="round"/>
</svg>
