<svg width="20" height="20" viewBox="0 0 20 20" fill="none" xmlns="http://www.w3.org/2000/svg">
<path d="M4.66663 18.7879L6.60602 14.4243M10.4848 18.7879V14.9091L7.57572 12M7.57572 12L8.54541 6.18186M7.57572 12L5.80406 10.8189C5.47107 10.597 5.21487 10.2775 5.0706 9.90429C4.92634 9.53103 4.90106 9.12229 4.99824 8.7341L5.26976 7.65095C5.37459 7.23154 5.61656 6.85919 5.95721 6.59302C6.29787 6.32686 6.71769 6.18214 7.15 6.18186H8.54541M8.54541 6.18186L11.4545 10.0606L14.3636 12M8.54541 6.18186L12.4242 7.15156L15.3333 5.21216M14.3636 10.0606V18.7879M8.54541 2.30307C8.54541 2.56025 8.64758 2.8069 8.82943 2.98875C9.01129 3.1706 9.25793 3.27277 9.51511 3.27277C9.77229 3.27277 10.0189 3.1706 10.2008 2.98875C10.3826 2.8069 10.4848 2.56025 10.4848 2.30307C10.4848 2.04589 10.3826 1.79925 10.2008 1.61739C10.0189 1.43554 9.77229 1.33337 9.51511 1.33337C9.25793 1.33337 9.01129 1.43554 8.82943 1.61739C8.64758 1.79925 8.54541 2.04589 8.54541 2.30307Z" stroke="black" stroke-width="1.5" stroke-linecap="round" stroke-linejoin="round"/>
</svg>
