<svg width="24" height="24" viewBox="0 0 24 24" fill="none" xmlns="http://www.w3.org/2000/svg">
<g clip-path="url(#clip0_387_1558)">
<path d="M22.4001 22.4L15.4668 15.4666M1.6001 9.68886C1.6001 10.7511 1.80932 11.803 2.21583 12.7843C2.62233 13.7657 3.21816 14.6574 3.96928 15.4086C4.7204 16.1597 5.61211 16.7555 6.5935 17.162C7.57489 17.5685 8.62674 17.7778 9.68899 17.7778C10.7512 17.7778 11.8031 17.5685 12.7845 17.162C13.7659 16.7555 14.6576 16.1597 15.4087 15.4086C16.1598 14.6574 16.7556 13.7657 17.1621 12.7843C17.5687 11.803 17.7779 10.7511 17.7779 9.68886C17.7779 8.62662 17.5687 7.57477 17.1621 6.59338C16.7556 5.61199 16.1598 4.72028 15.4087 3.96916C14.6576 3.21803 13.7659 2.62221 12.7845 2.21571C11.8031 1.8092 10.7512 1.59998 9.68899 1.59998C8.62674 1.59998 7.57489 1.8092 6.5935 2.21571C5.61211 2.62221 4.7204 3.21803 3.96928 3.96916C3.21816 4.72028 2.62233 5.61199 2.21583 6.59338C1.80932 7.57477 1.6001 8.62662 1.6001 9.68886Z" stroke="black" stroke-width="1.6" stroke-linecap="round" stroke-linejoin="round"/>
</g>
<defs>
<clipPath id="clip0_387_1558">
<rect width="24" height="24" fill="white"/>
</clipPath>
</defs>
</svg>
