<svg width="25" height="25" viewBox="0 0 25 25" fill="none" xmlns="http://www.w3.org/2000/svg">
<g clip-path="url(#clip0_459_249)">
<path d="M23.3333 23.3333L16.1111 16.1111M1.66663 10.0926C1.66663 11.1991 1.88457 12.2947 2.30801 13.317C2.73145 14.3393 3.3521 15.2682 4.13452 16.0506C4.91694 16.833 5.84581 17.4536 6.86809 17.8771C7.89037 18.3005 8.98604 18.5185 10.0926 18.5185C11.1991 18.5185 12.2947 18.3005 13.317 17.8771C14.3393 17.4536 15.2682 16.833 16.0506 16.0506C16.833 15.2682 17.4536 14.3393 17.8771 13.317C18.3005 12.2947 18.5185 11.1991 18.5185 10.0926C18.5185 8.98604 18.3005 7.89037 17.8771 6.86809C17.4536 5.84581 16.833 4.91694 16.0506 4.13452C15.2682 3.3521 14.3393 2.73145 13.317 2.30801C12.2947 1.88457 11.1991 1.66663 10.0926 1.66663C8.98604 1.66663 7.89037 1.88457 6.86809 2.30801C5.84581 2.73145 4.91694 3.3521 4.13452 4.13452C3.3521 4.91694 2.73145 5.84581 2.30801 6.86809C1.88457 7.89037 1.66663 8.98604 1.66663 10.0926Z" stroke="#2E2E2E" stroke-width="1.5" stroke-linecap="round" stroke-linejoin="round"/>
</g>
<defs>
<clipPath id="clip0_459_249">
<rect width="25" height="25" fill="white"/>
</clipPath>
</defs>
</svg>
