<svg width="36" height="36" viewBox="0 0 36 36" fill="none" xmlns="http://www.w3.org/2000/svg">
<path d="M25.2175 3.04102H10.2585C6.12773 3.04102 2.77905 6.3897 2.77905 10.5205V25.4795C2.77905 29.6103 6.12773 32.959 10.2585 32.959H25.2175C29.3483 32.959 32.697 29.6103 32.697 25.4795V10.5205C32.697 6.3897 29.3483 3.04102 25.2175 3.04102Z" stroke="#FF9A00" stroke-width="1.5" stroke-linecap="round" stroke-linejoin="round"/>
<path d="M23.7213 17.0576C23.9059 18.3025 23.6933 19.574 23.1136 20.6911C22.534 21.8083 21.6168 22.7142 20.4926 23.28C19.3684 23.8459 18.0944 24.0428 16.8518 23.8429C15.6092 23.6429 14.4613 23.0562 13.5714 22.1663C12.6815 21.2764 12.0948 20.1285 11.8948 18.8859C11.6949 17.6433 11.8919 16.3693 12.4577 15.2451C13.0235 14.1209 13.9294 13.2037 15.0466 12.6241C16.1637 12.0444 17.4352 11.8318 18.6801 12.0164C19.95 12.2047 21.1257 12.7964 22.0335 13.7042C22.9413 14.612 23.533 15.7877 23.7213 17.0576Z" stroke="#FF9A00" stroke-width="1.5" stroke-linecap="round" stroke-linejoin="round"/>
<path d="M25.9653 9.77258H25.9797" stroke="#FF9A00" stroke-width="1.5" stroke-linecap="round" stroke-linejoin="round"/>
</svg>
