<svg width="36" height="36" viewBox="0 0 36 36" fill="none" xmlns="http://www.w3.org/2000/svg">
<g clip-path="url(#clip0_218_1806)">
<path d="M33.5314 9.91065C33.3547 9.2046 32.9948 8.5577 32.488 8.03527C31.9813 7.51284 31.3456 7.13339 30.6453 6.93526C28.0864 6.31042 17.8511 6.31042 17.8511 6.31042C17.8511 6.31042 7.61575 6.31042 5.05691 6.99476C4.35658 7.1929 3.72093 7.57235 3.21418 8.09478C2.70742 8.6172 2.34751 9.26411 2.17079 9.97015C1.70248 12.567 1.47341 15.2014 1.48645 17.8401C1.46975 20.4986 1.69884 23.1531 2.17079 25.7695C2.36561 26.4536 2.73359 27.0759 3.23917 27.5763C3.74474 28.0766 4.37082 28.4381 5.05691 28.6259C7.61575 29.3102 17.8511 29.3102 17.8511 29.3102C17.8511 29.3102 28.0864 29.3102 30.6453 28.6259C31.3456 28.4277 31.9813 28.0483 32.488 27.5258C32.9948 27.0034 33.3547 26.3565 33.5314 25.6505C33.9961 23.0732 34.2251 20.4589 34.2157 17.8401C34.2324 15.1815 34.0033 12.5271 33.5314 9.91065Z" stroke="#FF9A00" stroke-width="1.50295" stroke-linecap="round" stroke-linejoin="round"/>
<path d="M14.5037 22.7047L23.0579 17.84L14.5037 12.9752V22.7047Z" stroke="#FF9A00" stroke-width="1.50295" stroke-linecap="round" stroke-linejoin="round"/>
</g>
<defs>
<clipPath id="clip0_218_1806">
<rect width="35.0688" height="35.0688" fill="white" transform="translate(0.31665 0.465576)"/>
</clipPath>
</defs>
</svg>
