<svg width="36" height="36" viewBox="0 0 36 36" fill="none" xmlns="http://www.w3.org/2000/svg">
<path d="M25.4529 2.77728H10.2302C6.02661 2.77728 2.6189 6.185 2.6189 10.3886V25.6113C2.6189 29.815 6.02661 33.2227 10.2302 33.2227H25.4529C29.6566 33.2227 33.0643 29.815 33.0643 25.6113V10.3886C33.0643 6.185 29.6566 2.77728 25.4529 2.77728Z" stroke="black" stroke-width="1.5" stroke-linecap="round" stroke-linejoin="round"/>
<path d="M23.9307 17.041C24.1185 18.3079 23.9021 19.6018 23.3123 20.7386C22.7224 21.8755 21.789 22.7973 20.645 23.3732C19.501 23.949 18.2046 24.1494 16.9401 23.9459C15.6756 23.7424 14.5074 23.1454 13.6018 22.2398C12.6962 21.3342 12.0992 20.166 11.8957 18.9015C11.6922 17.6371 11.8927 16.3406 12.4685 15.1966C13.0443 14.0526 13.9662 13.1192 15.103 12.5294C16.2398 11.9395 17.5337 11.7231 18.8006 11.911C20.0929 12.1026 21.2893 12.7048 22.2131 13.6285C23.1369 14.5523 23.739 15.7487 23.9307 17.041Z" stroke="black" stroke-width="1.5" stroke-linecap="round" stroke-linejoin="round"/>
<path d="M26.2141 9.6275H26.2287" stroke="black" stroke-width="1.5" stroke-linecap="round" stroke-linejoin="round"/>
</svg>
