<svg width="18" height="18" viewBox="0 0 18 18" fill="none" xmlns="http://www.w3.org/2000/svg">
<g clip-path="url(#clip0_176_1009)">
<path d="M12.0333 8.99995H8.99995V4.66662M1.19995 8.99995C1.19995 10.0243 1.4017 11.0385 1.79369 11.9849C2.18568 12.9312 2.76022 13.7911 3.48452 14.5154C4.20881 15.2397 5.06868 15.8142 6.01502 16.2062C6.96136 16.5982 7.97564 16.8 8.99995 16.8C10.0243 16.8 11.0385 16.5982 11.9849 16.2062C12.9312 15.8142 13.7911 15.2397 14.5154 14.5154C15.2397 13.7911 15.8142 12.9312 16.2062 11.9849C16.5982 11.0385 16.8 10.0243 16.8 8.99995C16.8 7.97564 16.5982 6.96136 16.2062 6.01502C15.8142 5.06868 15.2397 4.20882 14.5154 3.48452C13.7911 2.76022 12.9312 2.18568 11.9849 1.79369C11.0385 1.4017 10.0243 1.19995 8.99995 1.19995C7.97564 1.19995 6.96136 1.4017 6.01502 1.79369C5.06868 2.18568 4.20881 2.76022 3.48452 3.48452C2.76022 4.20882 2.18568 5.06868 1.79369 6.01502C1.4017 6.96136 1.19995 7.97564 1.19995 8.99995Z" stroke="black" stroke-width="1.5" stroke-linecap="round" stroke-linejoin="round"/>
</g>
<defs>
<clipPath id="clip0_176_1009">
<rect width="18" height="18" fill="white"/>
</clipPath>
</defs>
</svg>
