<svg width="36" height="36" viewBox="0 0 36 36" fill="none" xmlns="http://www.w3.org/2000/svg">
<g clip-path="url(#clip0_119_1877)">
<path d="M33.3329 9.92647C33.1565 9.22181 32.7973 8.57617 32.2915 8.05477C31.7858 7.53337 31.1514 7.15467 30.4524 6.95692C27.8986 6.33331 17.6833 6.33331 17.6833 6.33331C17.6833 6.33331 7.46809 6.33331 4.91428 7.01631C4.21532 7.21406 3.58092 7.59276 3.07516 8.11416C2.5694 8.63556 2.21019 9.2812 2.03382 9.98586C1.56644 12.5776 1.33781 15.2068 1.35082 17.8403C1.33416 20.4937 1.5628 23.1429 2.03382 25.7542C2.22827 26.4369 2.59552 27.058 3.1001 27.5574C3.60468 28.0568 4.22954 28.4176 4.91428 28.6049C7.46809 29.2879 17.6833 29.2879 17.6833 29.2879C17.6833 29.2879 27.8986 29.2879 30.4524 28.6049C31.1514 28.4072 31.7858 28.0285 32.2915 27.5071C32.7973 26.9857 33.1565 26.34 33.3329 25.6354C33.7966 23.0631 34.0253 20.454 34.0159 17.8403C34.0325 15.187 33.8039 12.5377 33.3329 9.92647Z" stroke="black" stroke-width="1.5" stroke-linecap="round" stroke-linejoin="round"/>
<path d="M14.3425 22.6957L22.88 17.8404L14.3425 12.9852V22.6957Z" stroke="black" stroke-width="1.5" stroke-linecap="round" stroke-linejoin="round"/>
</g>
<defs>
<clipPath id="clip0_119_1877">
<rect width="35" height="35" fill="white" transform="translate(0.18335 0.5)"/>
</clipPath>
</defs>
</svg>
