<svg width="18" height="18" viewBox="0 0 18 18" fill="none" xmlns="http://www.w3.org/2000/svg">
<path d="M6.11255 8.09968C6.11255 8.78593 6.38516 9.44407 6.87041 9.92932C7.35566 10.4146 8.0138 10.6872 8.70005 10.6872C9.38629 10.6872 10.0444 10.4146 10.5297 9.92932C11.0149 9.44407 11.2875 8.78593 11.2875 8.09968C11.2875 7.41344 11.0149 6.7553 10.5297 6.27005C10.0444 5.7848 9.38629 5.51219 8.70005 5.51219C8.0138 5.51219 7.35566 5.7848 6.87041 6.27005C6.38516 6.7553 6.11255 7.41344 6.11255 8.09968Z" stroke="black" stroke-width="1.5" stroke-linecap="round" stroke-linejoin="round"/>
<path d="M13.5792 12.9789L9.91962 16.6384C9.59617 16.9616 9.15768 17.1431 8.70048 17.1431C8.24328 17.1431 7.80479 16.9616 7.48134 16.6384L3.82089 12.9789C2.85594 12.0139 2.19882 10.7844 1.93261 9.44594C1.6664 8.10748 1.80306 6.72014 2.32532 5.45935C2.84757 4.19856 3.73196 3.12095 4.86665 2.36279C6.00134 1.60462 7.33537 1.19995 8.70005 1.19995C10.0647 1.19995 11.3988 1.60462 12.5334 2.36279C13.6681 3.12095 14.5525 4.19856 15.0748 5.45935C15.597 6.72014 15.7337 8.10748 15.4675 9.44594C15.2013 10.7844 14.5442 12.0139 13.5792 12.9789Z" stroke="black" stroke-width="1.5" stroke-linecap="round" stroke-linejoin="round"/>
</svg>
