<svg width="20" height="20" viewBox="0 0 20 20" fill="none" xmlns="http://www.w3.org/2000/svg">
<g clip-path="url(#clip0_119_1854)">
<path d="M1.33337 10C1.33337 11.1382 1.55754 12.2651 1.99308 13.3166C2.42863 14.3681 3.06701 15.3235 3.87178 16.1283C4.67656 16.9331 5.63196 17.5715 6.68345 18.007C7.73494 18.4425 8.86192 18.6667 10 18.6667M1.33337 10C1.33337 8.86192 1.55754 7.73494 1.99308 6.68345C2.42863 5.63196 3.06701 4.67656 3.87178 3.87178C4.67656 3.06701 5.63196 2.42863 6.68345 1.99308C7.73494 1.55754 8.86192 1.33337 10 1.33337M1.33337 10H5.18523M10 18.6667C11.1382 18.6667 12.2651 18.4425 13.3166 18.007C14.3681 17.5715 15.3235 16.9331 16.1283 16.1283C16.9331 15.3235 17.5715 14.3681 18.007 13.3166C18.4425 12.2651 18.6667 11.1382 18.6667 10M10 18.6667V15.7778M18.6667 10C18.6667 8.86192 18.4425 7.73494 18.007 6.68345C17.5715 5.63196 16.9331 4.67656 16.1283 3.87178C15.3235 3.06701 14.3681 2.42863 13.3166 1.99308C12.2651 1.55754 11.1382 1.33337 10 1.33337M18.6667 10H15.7778M10 1.33337V5.18523M10 10V10.0097" stroke="black" stroke-width="1.5" stroke-linecap="round" stroke-linejoin="round"/>
</g>
<defs>
<clipPath id="clip0_119_1854">
<rect width="20" height="20" fill="white"/>
</clipPath>
</defs>
</svg>
