<svg width="18" height="18" viewBox="0 0 18 18" fill="none" xmlns="http://www.w3.org/2000/svg">
<path d="M1.19995 4.71429C1.19995 4.25963 1.38056 3.82359 1.70205 3.5021C2.02354 3.18061 2.45958 3 2.91424 3H14.9142C15.3689 3 15.8049 3.18061 16.1264 3.5021C16.4479 3.82359 16.6285 4.25963 16.6285 4.71429M1.19995 4.71429V13.2857C1.19995 13.7404 1.38056 14.1764 1.70205 14.4979C2.02354 14.8194 2.45958 15 2.91424 15H14.9142C15.3689 15 15.8049 14.8194 16.1264 14.4979C16.4479 14.1764 16.6285 13.7404 16.6285 13.2857V4.71429M1.19995 4.71429L8.91424 9.85714L16.6285 4.71429" stroke="black" stroke-width="1.5" stroke-linecap="round" stroke-linejoin="round"/>
</svg>
